<?xml version="1.0" encoding="UTF-8" standalone="no"?>
<!-- Created with Inkscape (http://www.inkscape.org/) -->

<svg
   xmlns:dc="http://purl.org/dc/elements/1.1/"
   xmlns:cc="http://creativecommons.org/ns#"
   xmlns:rdf="http://www.w3.org/1999/02/22-rdf-syntax-ns#"
   xmlns:svg="http://www.w3.org/2000/svg"
   xmlns="http://www.w3.org/2000/svg"
   xmlns:sodipodi="http://sodipodi.sourceforge.net/DTD/sodipodi-0.dtd"
   xmlns:inkscape="http://www.inkscape.org/namespaces/inkscape"
   id="svg5951"
   version="1.1"
   inkscape:version="0.91 r13725"
   xml:space="preserve"
   width="990"
   height="765"
   viewBox="0 0 990 765"
   sodipodi:docname="seed_acorn.svg"><metadata
     id="metadata5957"><rdf:RDF><cc:Work
         rdf:about=""><dc:format>image/svg+xml</dc:format><dc:type
           rdf:resource="http://purl.org/dc/dcmitype/StillImage" /><dc:title></dc:title></cc:Work></rdf:RDF></metadata><defs
     id="defs5955"><inkscape:perspective
       sodipodi:type="inkscape:persp3d"
       inkscape:vp_x="0 : 382.5 : 1"
       inkscape:vp_y="0 : 1000 : 0"
       inkscape:vp_z="990 : 382.5 : 1"
       inkscape:persp3d-origin="495 : 255 : 1"
       id="perspective6133" /><clipPath
       clipPathUnits="userSpaceOnUse"
       id="clipPath5965"><path
         d="M 0,612 792,612 792,0 0,0 0,612 Z"
         id="path5967"
         inkscape:connector-curvature="0" /></clipPath></defs><sodipodi:namedview
     pagecolor="#ffffff"
     bordercolor="#666666"
     borderopacity="1"
     objecttolerance="10"
     gridtolerance="10"
     guidetolerance="10"
     inkscape:pageopacity="0"
     inkscape:pageshadow="2"
     inkscape:window-width="1445"
     inkscape:window-height="841"
     id="namedview5953"
     showgrid="false"
     inkscape:zoom="0.76654986"
     inkscape:cx="417.62585"
     inkscape:cy="383.32712"
     inkscape:window-x="0"
     inkscape:window-y="0"
     inkscape:window-maximized="0"
     inkscape:current-layer="g5961" /><g
     id="g5959"
     inkscape:groupmode="layer"
     inkscape:label="seed_acorn"
     transform="matrix(1.25,0,0,-1.25,0,765)"><g
       id="g5961"><g
         transform="translate(217.5919,417.2388)"
         id="g5969"
         style="fill:#ffffff"><path
           inkscape:connector-curvature="0"
           id="path5971"
           style="fill:#ffffff;fill-opacity:1;fill-rule:nonzero;stroke:none"
           d="m 0,0 c -2.094,4.415 -5.671,6.51 -14.917,8.721 l -5.255,1.365 c -5.984,1.364 -7.459,2.416 -7.459,5.043 0,2.73 2,4.306 5.467,4.306 4.729,0 7.145,-2.416 7.247,-7.357 l 14.815,0 0,16.392 -13.655,0 0,-2.227 c -3.905,3.434 -7.145,3.803 -14.078,3.803 -10.932,0 -17.968,-6.408 -17.968,-16.391 0,-3.357 0.949,-6.62 2.73,-9.035 2.101,-2.941 5.882,-4.934 11.975,-6.197 l 6.832,-1.474 c 5.568,-1.255 7.568,-2.627 7.568,-5.568 0,-2.832 -2.313,-4.62 -5.889,-4.62 -4.832,0 -7.138,2.416 -7.561,7.984 l -14.816,0 0,-17.019 13.866,0 0,1.749 c 3.663,-1.961 6.934,-3.325 13.977,-3.325 11.239,0 18.595,6.619 18.595,16.705 C 1.474,-4.627 0.949,-2 0,0" /></g><g
         transform="translate(362.8275,405.8901)"
         id="g5973"
         style="fill:#ffffff"><path
           inkscape:connector-curvature="0"
           id="path5975"
           style="fill:#ffffff;fill-opacity:1;fill-rule:nonzero;stroke:none"
           d="m 0,0 c -6.204,0 -9.145,4.415 -9.145,13.866 0,10.408 2.839,15.027 9.349,15.027 6.729,0 10.196,-4.941 10.196,-14.29 C 10.4,5.255 6.62,0 0,0 m 29.835,0.737 -1.569,61.144 -26.266,0 1.569,-11.663 6.305,0 0,-18.384 c -2.729,6.62 -7.882,9.561 -16.603,9.561 -15.129,0 -22.901,-9.035 -22.901,-26.478 0,-9.874 1.999,-16.706 6.407,-21.223 3.78,-4.094 9.349,-6.196 16.078,-6.196 5.671,0 10.298,1.475 13.968,4.306 2.424,2 3.467,3.788 4.416,7.459 l 0,-10.188 24.376,0 0,11.662 -5.78,0 z" /></g><g
         transform="translate(239.4082,425.7321)"
         id="g5977"
         style="fill:#ffffff"><path
           inkscape:connector-curvature="0"
           id="path5979"
           style="fill:#ffffff;fill-opacity:1;fill-rule:nonzero;stroke:none"
           d="m 0,0 c 0.526,7.566 2.943,11.035 7.888,11.035 4.937,0 7.04,-3.147 7.464,-11.035 L 0,0 Z m 34.064,-7.253 c 0,6.201 -1.153,12.825 -3.045,16.609 -3.784,7.888 -12.095,12.197 -23.766,12.197 -16.507,0 -26.601,-10.094 -26.601,-26.6 0,-17.142 10.204,-27.338 27.55,-27.338 14.191,0 22.605,5.361 25.76,16.405 l -18.924,0 c -1.051,-3.996 -3.469,-5.887 -7.26,-5.887 -2.943,0 -5.251,1.679 -6.726,4.835 -0.628,1.578 -0.84,2.52 -1.264,6.938 l 34.174,0 c 0.102,1.366 0.102,1.994 0.102,2.841" /></g><path
         d="m 295.9922,425.7321 c 0.526,7.566 2.943,11.035 7.888,11.035 4.937,0 7.04,-3.147 7.464,-11.035 l -15.352,0 z m 34.064,-7.253 c 0,6.201 -1.153,12.825 -3.045,16.609 -3.784,7.888 -12.095,12.197 -23.767,12.197 -16.506,0 -26.6,-10.094 -26.6,-26.6 0,-17.142 10.204,-27.338 27.55,-27.338 14.191,0 22.605,5.361 25.76,16.405 l -18.924,0 c -1.051,-3.996 -3.469,-5.887 -7.26,-5.887 -2.943,0 -5.251,1.679 -6.726,4.835 -0.628,1.578 -0.84,2.52 -1.264,6.938 l 34.174,0 c 0.102,1.366 0.102,1.994 0.102,2.841"
         style="fill:#ffffff;fill-opacity:1;fill-rule:nonzero;stroke:none"
         id="path5983"
         inkscape:connector-curvature="0" /><g
         transform="translate(466.0199,414.0016)"
         id="g5985"
         style="fill:#ffffff"><path
           inkscape:connector-curvature="0"
           id="path5987"
           style="fill:#ffffff;fill-opacity:1;fill-rule:nonzero;stroke:none"
           d="m 0,0 c 0,-12.157 -9.169,-19.471 -24.622,-19.471 -17.823,0 -28.332,10.096 -28.332,27.197 0,15.763 9.272,25.859 23.902,25.859 6.902,0 11.848,-2.679 14.32,-7.829 l 0,6.284 14.732,0 0,-19.575 -16.072,0 c -0.103,5.873 -2.781,8.86 -7.726,8.86 -6.182,0 -9.066,-4.429 -9.066,-13.702 0,-10.199 3.091,-15.659 8.963,-15.659 4.636,0 7.315,2.782 7.829,8.036 L 0,0 Z" /></g><g
         transform="translate(491.0524,421.2132)"
         id="g5989"
         style="fill:#ffffff"><path
           inkscape:connector-curvature="0"
           id="path5991"
           style="fill:#ffffff;fill-opacity:1;fill-rule:nonzero;stroke:none"
           d="m 0,0 c 0,-9.272 3.091,-14.217 8.963,-14.217 6.079,0 8.963,4.842 8.963,14.938 0,8.86 -2.988,13.393 -8.963,13.393 C 2.988,14.114 0,9.375 0,0 m 29.053,20.192 c 5.872,-4.43 8.963,-11.435 8.963,-20.295 0,-8.139 -2.473,-14.32 -7.624,-18.956 -5.254,-4.842 -12.672,-7.418 -21.223,-7.418 -18.029,0 -29.258,10.302 -29.258,26.786 0,15.556 11.641,26.064 28.949,26.064 7.83,0 14.835,-2.163 20.193,-6.181" /></g><g
         transform="translate(553.8928,421.2132)"
         id="g5993"
         style="fill:#ffffff"><path
           inkscape:connector-curvature="0"
           id="path5995"
           style="fill:#ffffff;fill-opacity:1;fill-rule:nonzero;stroke:none"
           d="m 0,0 c 0,-9.272 3.091,-14.217 8.963,-14.217 6.079,0 8.963,4.842 8.963,14.938 0,8.86 -2.988,13.393 -8.963,13.393 C 2.988,14.114 0,9.375 0,0 m 29.053,20.192 c 5.872,-4.43 8.963,-11.435 8.963,-20.295 0,-8.139 -2.473,-14.32 -7.624,-18.956 -5.254,-4.842 -12.672,-7.418 -21.223,-7.418 -18.029,0 -29.258,10.302 -29.258,26.786 0,15.556 11.641,26.064 28.949,26.064 7.83,0 14.835,-2.163 20.193,-6.181" /></g><g
         transform="translate(620.2361,421.2132)"
         id="g5997"
         style="fill:#ffffff"><path
           inkscape:connector-curvature="0"
           id="path5999"
           style="fill:#ffffff;fill-opacity:1;fill-rule:nonzero;stroke:none"
           d="m 0,0 c 0,-9.066 3.709,-14.217 10.199,-14.217 6.285,0 8.963,4.327 8.963,14.217 0,9.787 -2.678,14.114 -8.756,14.114 C 3.812,14.114 0,8.86 0,0 m -0.927,14.526 c 1.133,3.915 2.163,5.563 4.739,7.726 3.503,2.782 7.623,4.121 13.393,4.121 14.423,0 22.047,-9.066 22.047,-26.373 0,-17.411 -7.624,-26.477 -22.047,-26.477 -5.563,0 -9.994,1.339 -12.775,3.915 -1.339,1.236 -2.266,2.472 -3.812,5.254 l 0,-14.732 7.109,0 0,-11.436 -32.349,0 0,11.436 5.666,0 0,45.433 -5.666,0 0,11.435 23.695,0 0,-10.302 z" /></g><g
         transform="translate(401.3126,401.4089)"
         id="g6001"
         style="fill:#ffffff"><path
           inkscape:connector-curvature="0"
           id="path6003"
           style="fill:#ffffff;fill-opacity:1;fill-rule:nonzero;stroke:none"
           d="m 0,0 c 0,3.321 2.692,6.014 6.014,6.014 3.322,0 6.014,-2.693 6.014,-6.014 0,-3.321 -2.692,-6.014 -6.014,-6.014 C 2.692,-6.014 0,-3.321 0,0" /></g><g
         transform="translate(125.7089,450.3031)"
         id="g6005"
         style="fill:#ffffff"><path
           inkscape:connector-curvature="0"
           id="path6007"
           style="fill:#ffffff;fill-opacity:1;fill-rule:nonzero;stroke:none"
           d="m 0,0 c 0,0 -3.073,10.526 3.156,13.018 2.958,1.183 7.1,-2.762 7.298,-4.734 C 10.554,7.283 5.325,8.922 5.325,2.17 L 5.523,0" /></g><g
         transform="translate(103.8922,429.0447)"
         id="g6009"
         style="fill:#ffffff"><path
           inkscape:connector-curvature="0"
           id="path6011"
           style="fill:#ffffff;fill-opacity:1;fill-rule:nonzero;stroke:none"
           d="M 0,0 C 0.379,-0.483 1.018,-1.181 1.575,-1.708 L 2.889,-2.947 2.813,-4.754 c -0.317,-7.183 0.653,-20.349 10.706,-27.823 5.414,-4.026 10.657,-5.81 12.646,-6.387 4.067,1.193 21.359,7.74 21.358,32.806 l 0,1.144 0.612,0.967 c 0.725,1.146 1.497,2.545 1.821,3.279 -0.539,3.035 -4.53,19.763 -26.502,18.946 l -0.7,-0.073 C 5.71,17.462 0.679,4.561 0,0 m 26.145,-47.074 -0.823,0.177 c -0.332,0.072 -8.228,1.83 -16.51,7.988 -12.15,9.034 -14.055,23.735 -13.932,32.749 -2.943,3.176 -2.872,4.959 -2.843,5.682 0.114,2.852 1.595,9.267 6.425,15.222 3.927,4.843 11.244,10.712 23.82,11.238 l 0.689,0.073 c 10.668,0.436 19.315,-2.449 25.699,-8.577 7.635,-7.328 9.241,-16.922 9.241,-18.508 0,-0.648 0,-2.106 -2.509,-6.266 -0.317,-17.123 -7.781,-26.929 -14.064,-32.167 -7.001,-5.838 -14.073,-7.376 -14.37,-7.438 l -0.823,-0.173 z" /></g><g
         transform="translate(126.7533,416.1049)"
         id="g6013"
         style="fill:#ffffff"><path
           inkscape:connector-curvature="0"
           id="path6015"
           style="fill:#ffffff;fill-opacity:1;fill-rule:nonzero;stroke:none"
           d="m 0,0 c -15.618,0 -25.819,4.691 -28.29,7.28 l 5.707,5.447 c -0.032,0.034 -0.071,0.075 -0.121,0.117 2.153,-1.77 18.657,-9.181 45.106,-1.675 4.199,1.191 5.314,2.979 5.325,2.996 -0.078,-0.13 -0.102,-0.208 -0.102,-0.208 l 7.224,-3.173 C 34.49,9.967 32.307,5.779 24.556,3.579 15.388,0.978 7.13,0 0,0" /></g></g></g></svg>