<svg xmlns="http://www.w3.org/2000/svg" xmlns:xlink="http://www.w3.org/1999/xlink" version="1.1" x="0px" y="0px" viewBox="0 0 100 125" enable-background="new 0 0 100 100" xml:space="preserve"><g><path fill="none" d="M42.434,70.965c-0.009-0.004-0.016-0.008-0.024-0.012c-1.188,1.171-2.505,2.096-3.913,2.654   c-0.955,0.379-1.951,0.589-2.976,0.589c-1.023,0-2.02-0.21-2.976-0.589c-1.42-0.563-2.75-1.501-3.945-2.687   c-0.001,0-0.001,0-0.001,0c-0.001,1.458-1.114,2.29-1.871,2.687c-0.09,0.047-0.174,0.088-0.252,0.123   c-0.188,0.086-0.332,0.137-0.395,0.157c0,0,0,0,0,0.002c0.044,0.373,0.21,0.735,0.477,1.076c1.251,1.6,4.767,3.909,8.911,3.909   c4.143,0,7.659-2.309,8.91-3.909c0.268-0.341,0.434-0.704,0.479-1.075c0.002-0.013,0.002-0.021,0.003-0.033   C44.347,73.669,42.463,72.845,42.434,70.965z"/><path fill="none" d="M46.545,57.12c-0.037-0.018-0.078-0.03-0.118-0.038l-1.183,1.139l-14.551-7.49   c-4.756-0.44-5.512,5.915-5.569,6.482c-0.003,0.026-0.004,0.04-0.004,0.041v-0.001c-0.169-0.137-0.341-0.199-0.506-0.172   c-0.072,0.013-0.141,0.043-0.203,0.088c-0.459,0.331-0.644,1.482-0.411,2.788c0.179,0.991,0.552,1.819,0.96,2.228   c0.202,0.202,0.414,0.302,0.612,0.268c0.098-0.018,0.186-0.065,0.265-0.139c0.966,3.007,2.813,6.003,5.142,7.813   c1.372,1.066,2.913,1.721,4.541,1.721c1.62,0,3.151-0.646,4.517-1.701c2.342-1.808,4.197-4.815,5.168-7.833   c0.079,0.074,0.167,0.121,0.265,0.139c0.17,0.029,0.352-0.04,0.527-0.188c0.439-0.374,0.855-1.246,1.043-2.307   C47.288,58.575,47.064,57.363,46.545,57.12z"/><path d="M87.547,5H45.095c-1.316,0-2.381,1.065-2.381,2.38v0.254v27.159c0,1.314,1.065,2.381,2.381,2.381h10.374l-1.071,5.901   l7.974-5.901h25.175c0.284,0,0.553-0.053,0.808-0.145c0.914-0.33,1.572-1.205,1.572-2.236V7.38C89.926,6.065,88.86,5,87.547,5z"/><path d="M51.296,74.646c-0.133-0.032-0.268-0.061-0.403-0.086c-3.475-3.212-1.103-16.617-1.103-16.617   c0-20.436-13.822-18.425-13.822-18.425c-0.169-0.009-0.335-0.016-0.501-0.021c-0.166,0.005-0.332,0.012-0.5,0.021   c0,0-13.823-2.011-13.823,18.424c0,0,2.372,13.405-1.103,16.618c-0.136,0.024-0.271,0.055-0.402,0.086   c-1.146,0.267-6.467,0.607-9.347,10.514c-0.39,1.348-0.252,2.809,0.382,4.008c2.359,4.46,14.766,5.833,24.793,5.831   c10.029,0.003,22.434-1.371,24.793-5.831c0.634-1.199,0.771-2.662,0.382-4.008C57.762,75.254,52.441,74.912,51.296,74.646z    M44.856,73.891c-0.044,0.371-0.211,0.734-0.479,1.075c-1.251,1.601-4.767,3.909-8.91,3.909c-4.144,0-7.66-2.31-8.911-3.909   c-0.267-0.341-0.433-0.703-0.477-1.076c0-0.002,0-0.002,0-0.002c0.063-0.021,0.207-0.071,0.395-0.157   c0.079-0.035,0.163-0.076,0.252-0.123c0.757-0.396,1.87-1.229,1.871-2.687c0,0,0,0,0.001,0c1.195,1.186,2.525,2.123,3.945,2.687   c0.956,0.379,1.953,0.589,2.976,0.589c1.025,0,2.021-0.21,2.976-0.589c1.407-0.559,2.725-1.483,3.913-2.654   c0.009,0.004,0.015,0.008,0.024,0.012c0.029,1.88,1.914,2.704,2.425,2.893C44.858,73.869,44.858,73.878,44.856,73.891z    M47.04,59.957c-0.188,1.061-0.604,1.933-1.043,2.307c-0.175,0.148-0.357,0.218-0.527,0.188c-0.097-0.018-0.186-0.064-0.265-0.139   c-0.971,3.018-2.826,6.025-5.168,7.833c-1.365,1.055-2.897,1.701-4.517,1.701c-1.628,0-3.169-0.654-4.541-1.721   c-2.329-1.811-4.176-4.807-5.142-7.813c-0.08,0.073-0.167,0.121-0.265,0.139c-0.199,0.034-0.411-0.065-0.612-0.268   c-0.408-0.408-0.782-1.236-0.96-2.228c-0.232-1.306-0.048-2.457,0.411-2.788c0.063-0.045,0.131-0.075,0.203-0.088   c0.166-0.027,0.337,0.035,0.506,0.172v0.001c0-0.001,0.001-0.015,0.004-0.041c0.058-0.567,0.813-6.923,5.569-6.482l14.551,7.49   l1.183-1.139c0.041,0.008,0.081,0.021,0.118,0.038C47.064,57.363,47.288,58.575,47.04,59.957z"/></g></svg>