<svg xmlns="http://www.w3.org/2000/svg" xmlns:xlink="http://www.w3.org/1999/xlink" version="1.1" x="0px" y="0px" viewBox="-96 97.5 90 112.5" style="enable-background:new -96 97.5 90 90;" xml:space="preserve"><path d="M-9.9,158.4l-5.1-35.6c-0.4-2.5-2.5-4.3-4.9-4.3c-0.2,0-0.5,0-0.7,0.1l-3.3,0.5v-1.7c0-2.8-2.2-5-5-5h-58.3  c-2.8,0-5,2.2-5,5v36c0,2.8,2.2,5,5,5h8.4l1.4,9.8c0.4,2.5,2.5,4.3,4.9,4.3c0.2,0,0.5,0,0.7-0.1l57.7-8.3  C-11.4,163.6-9.5,161.1-9.9,158.4z M-20.1,122.5L-20.1,122.5c0.6,0,1,0.4,1.1,0.9l0.6,4.1L-78,136l-0.6-4.1  c-0.1-0.5,0.3-1.1,0.8-1.1L-20.1,122.5z M-88.2,130v-7.5h40l-30.1,4.3c-1.9,0.3-3.3,1.5-3.9,3.2H-88.2z M-14,159.7  c-0.1,0.2-0.3,0.3-0.7,0.4l-57.7,8.3h-0.1c-0.5,0-0.9-0.4-1-0.9l-3.2-22.1l59.7-8.5l3.2,22.1C-13.8,159.3-13.9,159.5-14,159.7z"/><path d="M-24.7,146.8c-1,0.1-1.9,0.6-2.7,1.2c-0.6-0.4-1.3-0.5-2-0.5c-0.3,0-0.5,0-0.8,0.1c-3.1,0.4-5.2,3.3-4.8,6.4  c0.4,2.8,2.8,4.8,5.6,4.8c0.3,0,0.5,0,0.8-0.1c1-0.1,1.9-0.6,2.7-1.2c0.9,0.4,1.9,0.5,2.9,0.4c3.1-0.4,5.2-3.3,4.8-6.4  C-18.7,148.4-21.6,146.3-24.7,146.8z M-29,156.2c-0.1,0-0.3,0-0.5,0c-1.5,0-2.9-1.2-3.1-2.7c-0.2-1.7,0.9-3.3,2.6-3.5  c0.1,0,0.3,0,0.5,0c0.1,0,0.3,0,0.4,0c-0.4,0.9-0.6,2-0.4,3.1c0.2,1.1,0.6,2.1,1.3,2.8C-28.4,156.1-28.7,156.2-29,156.2z"/></svg>