<?xml version="1.0" encoding="utf-8"?><!DOCTYPE svg PUBLIC "-//W3C//DTD SVG 1.1//EN" "http://www.w3.org/Graphics/SVG/1.1/DTD/svg11.dtd"><svg version="1.1" xmlns="http://www.w3.org/2000/svg" xmlns:xlink="http://www.w3.org/1999/xlink" x="0px" y="0px" viewBox="0.26 23.523 100 63.886250000000004" enable-background="new 0.26 23.523 100 51.109" xml:space="preserve"><path fill="none" d="M87.919,26.225H12.426c-0.575,9.963-9.772,9.867-9.772,9.867L2.558,62.629c9.772,0.48,9.868,9.677,9.868,9.677
	l75.589-0.192c0.861-9.579,9.771-9.676,9.771-9.676V36.188C88.397,35.805,87.919,26.225,87.919,26.225z M96.516,61.075
	c0,0-7.48,0.114-9.81,9.525l-31.023,0.073c-1.708,0.685-3.527,1.057-5.416,1.057c-1.866,0-3.665-0.362-5.355-1.032l-31.093,0.073
	c0,0-0.756-8.193-9.895-9.43l0.085-23.693c0,0,9.103-0.937,9.81-9.892h31.557c1.555-0.558,3.194-0.863,4.892-0.863
	c1.698,0,3.337,0.305,4.893,0.863h31.46c0,0,0.547,8.811,9.896,9.774V61.075z"/><path fill="none" d="M68.088,49.312c0,8.456-3.723,15.814-9.217,19.634l26.476-0.062c3.243-8.363,9.444-9.172,9.444-9.172V38.706
	c-7.927-1.465-9.526-9.225-9.526-9.225H58.576C64.232,33.239,68.088,40.708,68.088,49.312z"/><path fill="none" d="M33.53,57.021c-0.101-0.343-0.194-0.69-0.281-1.042c-0.173-0.701-0.32-1.418-0.438-2.147
	c-0.238-1.46-0.362-2.971-0.362-4.519c0-1.547,0.125-3.059,0.362-4.518c0.118-0.729,0.265-1.446,0.438-2.148
	c0.087-0.351,0.18-0.699,0.281-1.042c1.523-5.233,4.554-9.548,8.429-12.124H15.174c-1.983,7.856-9.444,9.431-9.444,9.431
	L5.648,59.877c7.639,1.794,9.526,9.171,9.526,9.171l26.545-0.062C37.958,66.394,35.021,62.146,33.53,57.021z"/><path opacity="0.99" enable-background="new    " d="M100.207,29.432c0.081-3.903-1.24-5.969-5.907-5.907L6.171,23.53
	c-4.899,0.003-5.998,2.199-5.906,5.907l0.047,39.23C0.089,73.89,2.41,74.713,6.22,74.572l88.128-0.005
	c3.896,0.359,6.027-0.668,5.908-5.906L100.207,29.432z M97.786,62.438c0,0-8.91,0.097-9.771,9.676l-75.589,0.192
	c0,0-0.096-9.196-9.868-9.677l0.096-26.537c0,0,9.197,0.096,9.772-9.867h75.493c0,0,0.479,9.58,9.867,9.963V62.438z"/><path d="M15.174,69.048c0,0-1.887-7.377-9.526-9.171L5.73,38.912c0,0,7.461-1.574,9.444-9.431h26.784
	c1.078-0.716,2.222-1.296,3.417-1.724H13.819c-0.708,8.955-9.81,9.892-9.81,9.892L3.924,61.342c9.139,1.236,9.895,9.43,9.895,9.43
	l31.093-0.073c-1.116-0.441-2.184-1.018-3.192-1.713L15.174,69.048z"/><path d="M86.62,27.757H55.16c1.194,0.428,2.338,1.008,3.416,1.724h26.688c0,0,1.6,7.76,9.526,9.225v21.006
	c0,0-6.201,0.809-9.444,9.172l-26.476,0.062c-1.008,0.699-2.074,1.28-3.188,1.728l31.023-0.073c2.329-9.411,9.81-9.525,9.81-9.525
	V37.531C87.167,36.567,86.62,27.757,86.62,27.757z"/><path d="M32.811,53.831c0.118,0.729,0.265,1.446,0.438,2.147C33.076,55.277,32.929,54.561,32.811,53.831z"/><path d="M44.912,70.698c1.69,0.67,3.489,1.032,5.355,1.032C48.401,71.73,46.602,71.368,44.912,70.698L44.912,70.698z"/><path d="M33.53,41.604c1.523-5.233,4.554-9.548,8.429-12.124l0,0C38.083,32.056,35.053,36.371,33.53,41.604z"/><path d="M33.53,57.021c1.491,5.126,4.429,9.373,8.19,11.965l0,0C37.959,66.394,35.021,62.146,33.53,57.021z"/><path d="M33.249,42.646c-0.173,0.702-0.32,1.418-0.438,2.148C32.929,44.065,33.076,43.348,33.249,42.646z"/><path d="M50.267,26.894c-1.697,0-3.336,0.305-4.892,0.863l0,0C46.931,27.199,48.57,26.894,50.267,26.894z"/><path d="M41.958,29.481c1.079-0.716,2.222-1.296,3.417-1.724l0,0C44.181,28.185,43.037,28.765,41.958,29.481L41.958,29.481z"/><path d="M41.72,68.985L41.72,68.985c1.008,0.695,2.076,1.271,3.192,1.713h0C43.796,70.257,42.729,69.681,41.72,68.985z"/><path d="M50.267,71.73c1.888,0,3.708-0.372,5.416-1.057l0,0C53.975,71.358,52.155,71.73,50.267,71.73z"/><path d="M68.086,49.312c0,8.456-3.723,15.814-9.216,19.634h0.001c5.494-3.819,9.217-11.178,9.217-19.634
	c0-8.605-3.855-16.074-9.512-19.832h-0.001C64.23,33.239,68.086,40.708,68.086,49.312z"/><path d="M55.16,27.757c-1.556-0.558-3.195-0.863-4.893-0.863c1.698,0,3.337,0.305,4.891,0.863H55.16z"/><path d="M58.575,29.481L58.575,29.481c-1.077-0.716-2.221-1.296-3.415-1.724h-0.002C56.354,28.185,57.497,28.765,58.575,29.481z"/><path d="M58.87,68.946c-1.008,0.699-2.074,1.28-3.188,1.728l0,0C56.797,70.227,57.863,69.646,58.87,68.946L58.87,68.946z"/><path d="M33.133,49.312c0-8.904,4.292-16.544,10.415-19.832h-1.589c-3.875,2.575-6.906,6.89-8.429,12.124
	c-0.101,0.343-0.194,0.691-0.281,1.042c-0.173,0.702-0.32,1.418-0.438,2.148c-0.238,1.459-0.362,2.971-0.362,4.518
	c0,1.548,0.125,3.059,0.362,4.519c0.118,0.729,0.265,1.446,0.438,2.147c0.087,0.352,0.18,0.699,0.281,1.042
	c1.491,5.126,4.429,9.373,8.19,11.965l1.562-0.003C37.304,65.617,33.133,58.084,33.133,49.312z"/><path d="M52.415,70.682c-0.706,0.11-1.419,0.187-2.148,0.187c-0.71,0-1.407-0.071-2.095-0.178l-3.26,0.008
	c1.69,0.67,3.489,1.032,5.355,1.032c1.888,0,3.708-0.372,5.416-1.057L52.415,70.682z"/><path d="M50.267,27.757h4.891c-1.554-0.558-3.193-0.863-4.891-0.863c-1.697,0-3.336,0.305-4.892,0.863H50.267z"/><path d="M68.086,49.312c0-8.605-3.855-16.074-9.511-19.832h-1.589c6.123,3.287,10.416,10.928,10.416,19.832
	c0,8.744-4.146,16.256-10.095,19.637l1.562-0.003C64.363,65.127,68.086,57.769,68.086,49.312z"/><path d="M58.575,29.481c-1.078-0.716-2.221-1.296-3.417-1.724h-4.891c2.385,0,4.657,0.616,6.719,1.724H58.575z"/><path d="M41.72,68.985c1.009,0.695,2.077,1.271,3.192,1.713l3.26-0.008c-1.723-0.265-3.365-0.85-4.891-1.708L41.72,68.985z"/><path d="M50.267,27.757h-4.892c-1.195,0.428-2.338,1.008-3.417,1.724h1.589C45.611,28.373,47.882,27.757,50.267,27.757z"/><path d="M52.415,70.682l3.268-0.008c1.113-0.447,2.18-1.028,3.188-1.728l-1.562,0.003C55.782,69.816,54.14,70.409,52.415,70.682z"/><path d="M34.885,49.312c0,10.688,6.887,19.353,15.383,19.353S65.651,60,65.651,49.312c0-10.688-6.887-19.353-15.383-19.353
	S34.885,38.625,34.885,49.312z M57.778,43.176c0,0,0.576-0.447,0.542,0.447c0,0,0.129,2.268-1.628,3.513c0,0-0.255,2.97-2.044,4.918
	c0,0-0.575,2.714,2.938,3.129c0,0,4.28,0.702,6.482,2.106c0,0-3.32,10.348-13.316,11.178c0.002,0-9.738,0.702-14.21-10.985
	c0,0,2.779-1.564,7.122-2.267c0,0,3.002-0.67,2.65-2.843c0,0-1.948-2.298-2.299-5.268c0,0-1.692-1.021-1.692-3.449
	c0,0,0.064-0.862,0.67-0.448c0,0-1.724-8.239,7.472-8.813C50.465,34.395,59.184,34.49,57.778,43.176z"/><g><path d="M81.228,42.742c-3.526,0-6.387,2.859-6.387,6.386c0,3.528,2.86,6.388,6.387,6.388c3.528,0,6.388-2.86,6.388-6.388
		S84.756,42.742,81.228,42.742z M81.228,54.94c-3.209,0-5.812-2.602-5.812-5.812c0-3.209,2.603-5.812,5.812-5.812
		c3.21,0,5.812,2.602,5.812,5.812C87.04,52.339,84.439,54.94,81.228,54.94z"/></g><path d="M81.62,49.695c0.507,0.758,1.428,2.109,2.034,2.868c0,0,0.545,0.474,1.019,0c0,0,0.438-0.364-0.072-1.019l-2.809-2.015
	C81.743,49.596,81.688,49.651,81.62,49.695z"/><path d="M85.316,48.474l-3.409,0.561c0.006,0.035,0.01,0.071,0.01,0.107c0,0.044-0.006,0.089-0.014,0.131
	c0.895,0.176,2.502,0.482,3.465,0.588c0,0,0.722-0.051,0.722-0.72C86.09,49.143,86.143,48.576,85.316,48.474z"/><path d="M81.806,48.774c0.757-0.507,2.11-1.428,2.867-2.034c0,0,0.473-0.546,0-1.019c0,0-0.365-0.437-1.019,0.072l-2.014,2.809
	C81.704,48.65,81.761,48.708,81.806,48.774z"/><path d="M81.385,48.491c0.175-0.895,0.481-2.502,0.588-3.466c0,0-0.052-0.721-0.72-0.721c0,0-0.566-0.05-0.67,0.773l0.562,3.411
	c0.035-0.006,0.069-0.009,0.106-0.009C81.298,48.478,81.342,48.482,81.385,48.491z"/><path d="M80.884,48.588c-0.507-0.757-1.429-2.109-2.033-2.867c0,0-0.546-0.473-1.02,0c0,0-0.438,0.364,0.073,1.019l2.809,2.015
	C80.759,48.691,80.817,48.634,80.884,48.588z"/><path d="M80.601,49.011c-0.895-0.177-2.502-0.482-3.466-0.589c0,0-0.72,0.052-0.72,0.721c0,0-0.053,0.566,0.771,0.668l3.411-0.561
	c-0.005-0.035-0.009-0.071-0.009-0.107C80.588,49.098,80.592,49.054,80.601,49.011z"/><path d="M80.698,49.511c-0.757,0.507-2.108,1.429-2.866,2.034c0,0-0.473,0.546,0,1.019c0,0,0.364,0.438,1.019-0.072l2.015-2.809
	C80.799,49.636,80.743,49.578,80.698,49.511z"/><path d="M81.121,49.794c-0.178,0.895-0.482,2.502-0.588,3.465c0,0,0.051,0.722,0.72,0.722c0,0,0.565,0.05,0.668-0.773l-0.561-3.41
	c-0.035,0.005-0.071,0.01-0.107,0.01C81.207,49.808,81.163,49.803,81.121,49.794z"/><path d="M81.909,49.035c-0.018-0.095-0.053-0.183-0.104-0.26c-0.045-0.066-0.102-0.125-0.165-0.171
	c-0.076-0.054-0.163-0.093-0.256-0.112c-0.043-0.008-0.087-0.013-0.132-0.013c-0.038,0-0.072,0.003-0.107,0.009
	c-0.096,0.016-0.185,0.051-0.262,0.102c-0.065,0.044-0.124,0.102-0.17,0.167c-0.056,0.075-0.094,0.162-0.112,0.256
	c-0.009,0.043-0.013,0.086-0.013,0.131c0,0.037,0.004,0.072,0.009,0.107c0.016,0.095,0.051,0.183,0.103,0.259
	c0.045,0.067,0.102,0.125,0.166,0.173c0.075,0.053,0.161,0.093,0.256,0.111c0.042,0.008,0.086,0.014,0.131,0.014
	c0.037,0,0.073-0.005,0.108-0.01c0.095-0.016,0.183-0.05,0.26-0.103c0.066-0.044,0.125-0.101,0.172-0.166
	c0.054-0.076,0.093-0.162,0.112-0.256c0.008-0.042,0.012-0.086,0.012-0.131C81.917,49.106,81.913,49.069,81.909,49.035z
	 M81.253,49.437c-0.163,0-0.294-0.131-0.294-0.293s0.131-0.293,0.294-0.293c0.162,0,0.293,0.131,0.293,0.293
	C81.546,49.304,81.415,49.437,81.253,49.437z"/><g><path d="M19.245,42.742c-3.526,0-6.387,2.859-6.387,6.386c0,3.528,2.861,6.388,6.387,6.388c3.528,0,6.387-2.86,6.387-6.388
		S22.772,42.742,19.245,42.742z M19.245,54.94c-3.208,0-5.812-2.602-5.812-5.812c0-3.209,2.604-5.812,5.812-5.812
		c3.209,0,5.813,2.602,5.813,5.812C25.058,52.339,22.456,54.94,19.245,54.94z"/></g><path d="M19.637,49.695c0.507,0.758,1.428,2.109,2.034,2.868c0,0,0.545,0.474,1.018,0c0,0,0.438-0.364-0.072-1.019l-2.809-2.015
	C19.761,49.596,19.705,49.651,19.637,49.695z"/><path d="M23.334,48.474l-3.41,0.561c0.005,0.035,0.009,0.071,0.009,0.107c0,0.044-0.005,0.089-0.013,0.131
	c0.895,0.176,2.502,0.482,3.465,0.588c0,0,0.721-0.051,0.721-0.72C24.107,49.143,24.159,48.576,23.334,48.474z"/><path d="M19.823,48.774c0.757-0.507,2.109-1.428,2.866-2.034c0,0,0.473-0.546,0-1.019c0,0-0.364-0.437-1.018,0.072l-2.014,2.809
	C19.721,48.65,19.778,48.708,19.823,48.774z"/><path d="M19.401,48.491c0.177-0.895,0.482-2.502,0.589-3.466c0,0-0.052-0.721-0.72-0.721c0,0-0.566-0.05-0.668,0.773l0.561,3.411
	c0.035-0.006,0.07-0.009,0.107-0.009C19.315,48.478,19.358,48.482,19.401,48.491z"/><path d="M18.9,48.588c-0.507-0.757-1.427-2.109-2.034-2.867c0,0-0.545-0.473-1.019,0c0,0-0.437,0.364,0.072,1.019l2.809,2.015
	C18.776,48.691,18.834,48.634,18.9,48.588z"/><path d="M18.618,49.011c-0.895-0.177-2.502-0.482-3.466-0.589c0,0-0.72,0.052-0.72,0.721c0,0-0.052,0.566,0.772,0.668l3.411-0.561
	c-0.005-0.035-0.009-0.071-0.009-0.107C18.604,49.098,18.608,49.054,18.618,49.011z"/><path d="M18.716,49.511c-0.757,0.507-2.109,1.429-2.867,2.034c0,0-0.473,0.546,0,1.019c0,0,0.365,0.438,1.019-0.072l2.015-2.809
	C18.816,49.636,18.76,49.578,18.716,49.511z"/><path d="M19.138,49.794c-0.178,0.895-0.482,2.502-0.589,3.465c0,0,0.052,0.722,0.72,0.722c0,0,0.566,0.05,0.668-0.773l-0.561-3.41
	c-0.035,0.005-0.071,0.01-0.107,0.01C19.224,49.808,19.181,49.803,19.138,49.794z"/><path d="M19.925,49.035c-0.017-0.095-0.051-0.183-0.102-0.26c-0.045-0.066-0.102-0.125-0.166-0.171
	c-0.076-0.054-0.163-0.093-0.256-0.112c-0.042-0.008-0.086-0.013-0.131-0.013c-0.037,0-0.072,0.003-0.107,0.009
	c-0.095,0.016-0.184,0.051-0.261,0.102c-0.066,0.044-0.125,0.102-0.171,0.167c-0.055,0.075-0.093,0.162-0.111,0.256
	c-0.009,0.043-0.013,0.086-0.013,0.131c0,0.037,0.004,0.072,0.009,0.107c0.017,0.095,0.051,0.183,0.103,0.259
	c0.044,0.067,0.102,0.125,0.167,0.173c0.075,0.053,0.161,0.093,0.256,0.111c0.042,0.008,0.085,0.014,0.131,0.014
	c0.036,0,0.072-0.005,0.108-0.01c0.095-0.016,0.182-0.05,0.26-0.103c0.066-0.044,0.124-0.101,0.171-0.166
	c0.053-0.076,0.093-0.162,0.111-0.256c0.008-0.042,0.013-0.086,0.013-0.131C19.934,49.106,19.93,49.069,19.925,49.035z
	 M19.27,49.437c-0.162,0-0.293-0.131-0.293-0.293s0.131-0.293,0.293-0.293s0.293,0.131,0.293,0.293
	C19.563,49.304,19.432,49.437,19.27,49.437z"/></svg>