<svg xmlns="http://www.w3.org/2000/svg" xmlns:xlink="http://www.w3.org/1999/xlink" version="1.1" x="0px" y="0px" viewBox="0 0 100 125" enable-background="new 0 0 100 100" xml:space="preserve"><path d="M66.5,5c-10.318,0-19.218,6.164-23.229,15H20c-2.757,0-5,2.243-5,5v63c0,2.757,2.243,5,5,5h50c2.757,0,5-2.243,5-5V54.538  c9.894-3.509,17-12.958,17-24.038C92,16.439,80.561,5,66.5,5z M69,87H21V26h20.406C41.144,27.462,41,28.964,41,30.5  c0,2.246,0.295,4.424,0.843,6.5H32c-1.657,0-3,1.343-3,3s1.343,3,3,3h12.287c2.388,4.227,5.943,7.708,10.229,10H32  c-1.657,0-3,1.343-3,3s1.343,3,3,3h25c1.657,0,3-1.343,3-3c0-0.311-0.061-0.604-0.147-0.885C61.973,55.688,64.2,56,66.5,56  c0.844,0,1.677-0.044,2.5-0.124V87z M66.5,50C55.748,50,47,41.252,47,30.5S55.748,11,66.5,11S86,19.748,86,30.5S77.252,50,66.5,50z   M58,70H32c-1.657,0-3,1.343-3,3s1.343,3,3,3h26c1.657,0,3-1.343,3-3S59.657,70,58,70z M67.998,19.461  c-0.541-0.541-1.274-0.845-2.039-0.845s-1.498,0.304-2.039,0.844l-7.209,7.208c-1.126,1.126-1.126,2.952,0,4.078  c1.127,1.127,2.951,1.126,4.078,0L63,28.537V40c0,1.657,1.343,3,3,3s3-1.343,3-3V28.619l2.128,2.128  c0.563,0.563,1.301,0.845,2.039,0.845s1.476-0.281,2.039-0.844c1.126-1.126,1.126-2.952,0-4.078L67.998,19.461z"/></svg>