<svg xmlns="http://www.w3.org/2000/svg" xmlns:xlink="http://www.w3.org/1999/xlink" version="1.1" x="0px" y="0px" viewBox="0 0 100 125" enable-background="new 0 0 100 100" xml:space="preserve"><g><path fill="none" d="M60.034,55.376c-0.013-0.005-0.022-0.011-0.034-0.017c-1.711,1.682-3.609,3.017-5.637,3.824   c-1.375,0.545-2.813,0.848-4.287,0.848c-1.474,0-2.91-0.303-4.286-0.848c-2.046-0.811-3.961-2.162-5.684-3.871   c-0.001,0-0.001,0-0.002,0c-0.001,1.836-1.228,2.983-2.266,3.627c-0.148,0.09-0.293,0.172-0.429,0.244   c-0.129,0.066-0.251,0.125-0.363,0.176c-0.271,0.125-0.479,0.199-0.569,0.229c0,0,0,0,0,0.002c0.063,0.537,0.303,1.059,0.687,1.551   c1.804,2.305,6.867,5.631,12.837,5.631c5.968,0,11.032-3.326,12.834-5.631c0.386-0.492,0.625-1.016,0.688-1.549   c0.004-0.02,0.004-0.031,0.006-0.049C62.792,59.271,60.077,58.084,60.034,55.376z"/><path fill="none" d="M34.864,42.728c0.291,0.292,0.596,0.436,0.883,0.385c0.084-0.015,0.163-0.051,0.238-0.097   c0.048-0.03,0.096-0.062,0.14-0.104c0,0,0,0.001,0,0.002c0.001-0.001,0.001-0.001,0.002-0.002   c1.217,3.791,3.407,7.569,6.182,10.201c0.396,0.376,0.805,0.729,1.224,1.055c1.112,0.864,2.301,1.541,3.546,1.967   c0.414,0.142,0.834,0.256,1.26,0.34c0.568,0.111,1.147,0.172,1.733,0.172c2.329,0,4.536-0.93,6.506-2.449   c3.374-2.604,6.046-6.935,7.442-11.283c0.001,0.001,0.002,0.001,0.003,0.002c0-0.001,0.001-0.002,0.001-0.003   c0.113,0.108,0.242,0.176,0.381,0.2c0.122,0.021,0.249,0.007,0.376-0.039c0.128-0.047,0.256-0.125,0.382-0.231   c0.633-0.537,1.232-1.795,1.503-3.322c0.09-0.498,0.138-0.98,0.146-1.43c0.026-1.347-0.295-2.395-0.856-2.658   c-0.056-0.026-0.11-0.044-0.17-0.055l-1.703,1.64l-20.96-10.789c-6.852-0.634-7.94,8.52-8.023,9.337   c-0.005,0.038-0.006,0.058-0.006,0.059v-0.001c-0.243-0.197-0.491-0.288-0.73-0.247c-0.104,0.017-0.201,0.062-0.292,0.126   c-0.495,0.357-0.769,1.381-0.733,2.663c0.012,0.427,0.059,0.883,0.142,1.353C33.737,40.948,34.275,42.14,34.864,42.728z"/><path fill="none" d="M42.31,53.113c-2.775-2.632-4.965-6.41-6.182-10.199c0,0-0.001,0.001-0.002,0.001   c1.392,4.33,4.052,8.646,7.405,11.25c1.113,0.866,2.303,1.543,3.549,1.969c-1.245-0.426-2.434-1.103-3.546-1.967   C43.115,53.842,42.707,53.489,42.31,53.113z"/><path fill="none" d="M64.025,42.914c0,0.001-0.001,0.001-0.001,0.002c0.112,0.106,0.24,0.173,0.378,0.197c0.001,0,0.002,0,0.003,0   C64.267,43.089,64.139,43.021,64.025,42.914z"/><path d="M79.76,64.012c-3.098-2.854-6.013-3.113-6.957-3.332c-0.191-0.045-0.387-0.087-0.582-0.123   c-5.005-4.627-1.588-23.938-1.588-23.938c0-29.437-19.91-26.541-19.91-26.541c-0.244-0.014-0.484-0.023-0.723-0.03   c-0.239,0.007-0.478,0.018-0.722,0.031c0,0-19.911-2.896-19.911,26.54c0,0,3.417,19.311-1.589,23.938   c-0.196,0.037-0.39,0.08-0.58,0.125c-1.65,0.383-9.315,0.875-13.464,15.146c-0.561,1.938-0.364,4.046,0.551,5.771   C17.683,88.023,35.555,90.003,50,90c5.436,0.002,11.354-0.277,16.805-0.971C65.038,86.458,64,83.35,64,80   C64,71.259,71.049,64.143,79.76,64.012z M64.024,42.917c0-0.001,0.001-0.001,0.001-0.002c0.113,0.107,0.241,0.175,0.38,0.199   c-0.001,0-0.002,0-0.003,0C64.265,43.09,64.137,43.022,64.024,42.917z M34.072,35.503c0.091-0.064,0.188-0.109,0.292-0.126   c0.239-0.041,0.487,0.05,0.73,0.247v0.001c0-0.001,0.001-0.021,0.006-0.059c0.083-0.817,1.171-9.971,8.023-9.337l20.96,10.789   l1.703-1.64c0.06,0.011,0.114,0.029,0.17,0.055c0.562,0.263,0.883,1.311,0.856,2.658c-0.008,0.45-0.056,0.932-0.146,1.43   c-0.271,1.527-0.87,2.785-1.503,3.322c-0.126,0.106-0.254,0.184-0.382,0.231c-0.127,0.045-0.254,0.06-0.376,0.039   c-0.139-0.024-0.268-0.092-0.381-0.2c0,0.001-0.001,0.002-0.001,0.003c-0.001-0.001-0.002-0.001-0.003-0.002   c-1.396,4.348-4.068,8.68-7.442,11.283c-1.97,1.52-4.177,2.449-6.506,2.449c-0.586,0-1.165-0.061-1.733-0.172   c-0.426-0.084-0.846-0.198-1.26-0.34c0.415,0.143,0.836,0.258,1.263,0.342c-0.427-0.084-0.848-0.199-1.263-0.342   c-1.246-0.426-2.436-1.103-3.549-1.969c-3.353-2.604-6.013-6.921-7.405-11.25c0.001,0,0.001-0.001,0.002-0.001   c1.217,3.79,3.407,7.567,6.182,10.199c-2.775-2.632-4.965-6.411-6.182-10.201c-0.001,0-0.001,0.001-0.002,0.002   c0-0.001,0-0.001,0-0.002c-0.043,0.042-0.091,0.073-0.14,0.104c-0.075,0.046-0.154,0.082-0.238,0.097   c-0.287,0.051-0.592-0.093-0.883-0.385c-0.589-0.588-1.127-1.78-1.383-3.209c-0.083-0.47-0.13-0.926-0.142-1.353   C33.303,36.884,33.577,35.86,34.072,35.503z M63.523,59.592c-0.063,0.533-0.303,1.057-0.688,1.549   c-1.802,2.305-6.866,5.631-12.834,5.631c-5.97,0-11.033-3.326-12.837-5.631c-0.384-0.492-0.624-1.014-0.687-1.551   c0-0.002,0-0.002,0-0.002c0.09-0.029,0.298-0.104,0.569-0.229c0.112-0.051,0.234-0.109,0.363-0.176   c0.136-0.072,0.281-0.154,0.429-0.244c1.038-0.644,2.265-1.791,2.266-3.627c0.001,0,0.001,0,0.002,0   c1.723,1.709,3.638,3.061,5.684,3.871c1.376,0.545,2.812,0.848,4.286,0.848c1.475,0,2.912-0.303,4.287-0.848   c2.027-0.808,3.926-2.143,5.637-3.824c0.012,0.006,0.021,0.012,0.034,0.017c0.043,2.708,2.758,3.896,3.495,4.167   C63.527,59.561,63.527,59.572,63.523,59.592z"/><path fill="none" stroke="#000000" stroke-width="0" stroke-linecap="round" stroke-linejoin="round" d="M48.343,56.477   c-0.427-0.084-0.848-0.199-1.263-0.342"/><path fill="none" stroke="#000000" stroke-width="0" stroke-linecap="round" stroke-linejoin="round" d="M42.31,53.113   c0.396,0.376,0.805,0.729,1.224,1.055c1.112,0.864,2.301,1.541,3.546,1.967"/><path d="M80,66c-7.721,0-14,6.279-14,14s6.279,14,14,14c7.719,0,14-6.279,14-14S87.719,66,80,66z M77.037,86.402L72.5,81.866   l2.342-2.342l2.195,2.195l8.121-8.121l2.342,2.341L77.037,86.402z"/></g></svg>